<svg viewBox="0 0 32 33" fill="none" xmlns="http://www.w3.org/2000/svg">
<g id="Icon">
<g id="Vector">
<path d="M21.0867 9.18543C20.8747 8.97335 20.8747 8.62951 21.0867 8.41743L23.4892 6.01501C23.7012 5.80294 24.0451 5.80294 24.2571 6.01501C24.4692 6.22709 24.4692 6.57093 24.2571 6.783L21.8547 9.18543C21.6427 9.3975 21.2988 9.3975 21.0867 9.18543Z" fill="current" />
<path d="M4.17244 12.4295C3.96036 12.6416 3.96036 12.9854 4.17244 13.1975C4.38451 13.4096 4.72835 13.4096 4.94043 13.1975L11.3202 6.81777C11.5322 6.6057 11.5322 6.26185 11.3202 6.04978C11.1081 5.8377 10.7642 5.8377 10.5522 6.04978L4.17244 12.4295Z" fill="current" />
<path d="M4.22281 8.07844C4.01074 8.29051 4.01074 8.63435 4.22281 8.84643C4.43489 9.0585 4.77873 9.0585 4.9908 8.84643L7.01245 6.82478C7.22453 6.61271 7.22453 6.26886 7.01245 6.05679C6.80038 5.84471 6.45653 5.84471 6.24446 6.05679L4.22281 8.07844Z" fill="current" />
<path d="M4.15906 17.5115C3.94698 17.2995 3.94698 16.9556 4.15906 16.7435L14.8179 6.08466C15.03 5.87259 15.3738 5.87259 15.5859 6.08466C15.798 6.29674 15.798 6.64058 15.5859 6.85265L4.92705 17.5115C4.71497 17.7236 4.37113 17.7236 4.15906 17.5115Z" fill="current" />
<path d="M17.849 7.35461C17.6369 7.56669 17.6369 7.91053 17.849 8.1226C18.0611 8.33468 18.4049 8.33468 18.617 8.1226L19.9169 6.82265C20.129 6.61058 20.129 6.26673 19.9169 6.05466C19.7048 5.84258 19.361 5.84258 19.1489 6.05466L17.849 7.35461Z" fill="current" />
<path d="M4.176 21.7955C3.96393 21.5835 3.96393 21.2396 4.176 21.0275L9.43458 15.769C9.64665 15.5569 9.9905 15.5569 10.2026 15.769C10.4146 15.981 10.4146 16.3249 10.2026 16.537L4.94399 21.7955C4.73192 22.0076 4.38808 22.0076 4.176 21.7955Z" fill="current" />
<path d="M4.16308 25.3411C3.95101 25.5532 3.95101 25.8971 4.16308 26.1091C4.37516 26.3212 4.719 26.3212 4.93107 26.1091L11.0381 20.0021C11.2502 19.79 11.2502 19.4462 11.0381 19.2341C10.8261 19.022 10.4822 19.022 10.2701 19.2341L4.16308 25.3411Z" fill="current" />
<path d="M22.4764 11.3285C22.2643 11.5405 22.2643 11.8844 22.4764 12.0965C22.6884 12.3085 23.0323 12.3085 23.2443 12.0965L28.4063 6.93451C28.6184 6.72243 28.6184 6.37859 28.4063 6.16652C28.1942 5.95444 27.8504 5.95444 27.6383 6.16652L22.4764 11.3285Z" fill="current" />
<path d="M22.4511 16.4226C22.2391 16.2105 22.2391 15.8667 22.4511 15.6546L27.6572 10.4486C27.8693 10.2365 28.2131 10.2365 28.4252 10.4486C28.6373 10.6606 28.6373 11.0045 28.4252 11.2165L23.2191 16.4226C23.007 16.6347 22.6632 16.6347 22.4511 16.4226Z" fill="current" />
<path d="M22.8586 19.5479C22.6465 19.76 22.6465 20.1038 22.8586 20.3159C23.0706 20.528 23.4145 20.528 23.6266 20.3159L28.4353 15.5072C28.6473 15.2951 28.6473 14.9513 28.4353 14.7392C28.2232 14.5271 27.8793 14.5271 27.6673 14.7392L22.8586 19.5479Z" fill="current" />
<path d="M24.2119 23.2634C23.9998 23.0513 23.9998 22.7075 24.2119 22.4954L27.7396 18.9677C27.9517 18.7556 28.2955 18.7556 28.5076 18.9677C28.7197 19.1798 28.7197 19.5236 28.5076 19.7357L24.9799 23.2634C24.7678 23.4755 24.4239 23.4755 24.2119 23.2634Z" fill="current" />
<path d="M25.2995 25.4009C25.0875 25.6129 25.0875 25.9568 25.2995 26.1689C25.5116 26.3809 25.8554 26.3809 26.0675 26.1689L28.4505 23.7858C28.6626 23.5738 28.6626 23.2299 28.4505 23.0179C28.2385 22.8058 27.8946 22.8058 27.6825 23.0179L25.2995 25.4009Z" fill="current" />
<path fill-rule="evenodd" clip-rule="evenodd" d="M13.1526 10.942C14.0064 10.0882 15.1644 9.60856 16.3719 9.60856C17.5793 9.60856 18.7373 10.0882 19.5911 10.942C20.4449 11.7958 20.9246 12.9538 20.9246 14.1613C20.9246 15.3688 20.4449 16.5268 19.5911 17.3806C18.7373 18.2344 17.5793 18.714 16.3719 18.714C15.1644 18.714 14.0064 18.2344 13.1526 17.3806C12.2988 16.5268 11.8191 15.3688 11.8191 14.1613C11.8191 12.9538 12.2988 11.7958 13.1526 10.942ZM16.3719 11.2377C15.5965 11.2377 14.8529 11.5457 14.3046 12.094C13.7563 12.6423 13.4483 13.3859 13.4483 14.1613C13.4483 14.9367 13.7563 15.6803 14.3046 16.2286C14.8529 16.7769 15.5965 17.0849 16.3719 17.0849C17.1472 17.0849 17.8909 16.7769 18.4391 16.2286C18.9874 15.6803 19.2954 14.9367 19.2954 14.1613C19.2954 13.3859 18.9874 12.6423 18.4391 12.094C17.8909 11.5457 17.1472 11.2377 16.3719 11.2377Z" fill="current" />
<path d="M12.7075 22.6791C13.6793 21.7073 14.9975 21.1613 16.3719 21.1613C17.7463 21.1613 19.0644 21.7073 20.0363 22.6791C20.8991 23.5419 21.4263 24.6776 21.5337 25.8834C21.5736 26.3315 21.9693 26.6623 22.4174 26.6224C22.8655 26.5825 23.1964 26.1869 23.1564 25.7388C23.0152 24.1539 22.3224 22.6612 21.1883 21.5271C19.9109 20.2498 18.1784 19.5321 16.3719 19.5321C14.5654 19.5321 12.8329 20.2498 11.5555 21.5271C10.4214 22.6612 9.72856 24.154 9.58734 25.7388C9.5474 26.1869 9.87829 26.5825 10.3264 26.6224C10.7745 26.6623 11.1701 26.3315 11.2101 25.8834C11.3175 24.6776 11.8447 23.5419 12.7075 22.6791Z" fill="current" />
</g>
</g>
</svg>
