<svg viewBox="0 0 24 24" fill="none" xmlns="http://www.w3.org/2000/svg">
<path fill-rule="evenodd" clip-rule="evenodd" d="M 16.341 10.989 L 16.341 8.569 C 16.341 7.258 15.277 6.194 13.966 6.194 L 5.257 6.194 C 3.946 6.194 2.882 7.258 2.882 8.569 L 2.882 16.486 C 2.882 17.798 3.946 18.861 5.257 18.861 L 13.966 18.861 C 15.277 18.861 16.341 17.798 16.341 16.486 L 16.341 14.066 L 20.631 17.13 C 20.872 17.303 21.189 17.326 21.453 17.19 C 21.717 17.054 21.882 16.783 21.882 16.486 L 21.882 8.569 C 21.882 8.273 21.717 8.001 21.453 7.866 C 21.189 7.73 20.872 7.753 20.631 7.925 L 16.341 10.989 Z M 4.466 8.569 C 4.466 8.132 4.82 7.778 5.257 7.778 L 13.966 7.778 C 14.403 7.778 14.757 8.132 14.757 8.569 L 14.757 16.486 C 14.757 16.923 14.403 17.278 13.966 17.278 L 5.257 17.278 C 4.82 17.278 4.466 16.923 4.466 16.486 L 4.466 8.569 Z M 20.299 14.948 L 16.911 12.528 L 20.299 10.108 L 20.299 14.948 Z" fill="white" style="fill:white;fill-opacity:1;"/>
</svg>
