<svg  viewBox="0 0 16 16" fill="none" xmlns="http://www.w3.org/2000/svg">
<path fill-rule="evenodd" clip-rule="evenodd" d="M1.49603 1.49579C1.71274 1.27907 2.06281 1.27907 2.27953 1.49579L6.68028 5.89654C6.69766 5.91026 6.71442 5.92515 6.73046 5.94119L9.5755 8.78622C9.59138 8.80211 9.6061 8.8187 9.61966 8.83591L11.0478 10.2641C11.0896 10.2878 11.129 10.3175 11.1647 10.3532C11.201 10.3895 11.2313 10.4295 11.2557 10.472L14.5043 13.7206C14.721 13.9373 14.721 14.2873 14.5043 14.5041C14.2876 14.7208 13.9375 14.7208 13.7208 14.5041L10.7391 11.5224C10.1976 11.9472 9.56408 12.2424 8.88646 12.3814C8.77763 12.4037 8.66828 12.4219 8.55862 12.436V13.5538H10.2256C10.5312 13.5538 10.7813 13.8039 10.7813 14.1095C10.7813 14.4151 10.5312 14.6651 10.2256 14.6651H8.01219C8.00912 14.6652 8.00604 14.6652 8.00295 14.6652C7.99987 14.6652 7.99679 14.6652 7.99371 14.6651H5.78025C5.47463 14.6651 5.22457 14.4207 5.22457 14.1095C5.22457 13.8039 5.47463 13.5538 5.78025 13.5538H7.44728V12.4391C7.05483 12.3907 6.66802 12.2898 6.29703 12.1369C5.48019 11.798 4.78005 11.2256 4.29106 10.4866C3.80762 9.74753 3.55201 8.88068 3.55757 7.99717V6.88582C3.55757 6.5802 3.80762 6.33015 4.11324 6.33015C4.41886 6.33015 4.66891 6.5802 4.66891 6.88582V8.00272C4.66336 8.66953 4.85784 9.31966 5.22458 9.86978C5.59133 10.4199 6.11922 10.8533 6.73045 11.1089C7.08548 11.2561 7.45891 11.3387 7.83592 11.357C7.8887 11.3402 7.94482 11.3312 8.00295 11.3312C8.06043 11.3312 8.11594 11.34 8.16819 11.3564C8.33596 11.3478 8.50358 11.3264 8.66975 11.2923C9.13289 11.1973 9.56783 11.0064 9.94846 10.7317L9.13064 9.91389C8.91729 10.0391 8.68314 10.1279 8.43637 10.1754C8.2919 10.2087 8.14743 10.2199 8.00295 10.2199C7.714 10.2199 7.42505 10.1643 7.15277 10.0476C6.74713 9.8809 6.40262 9.59751 6.15812 9.23076C5.90807 8.86958 5.78027 8.44171 5.78027 8.00273V6.56352L1.49603 2.27928C1.27932 2.06257 1.27932 1.7125 1.49603 1.49579ZM8.2873 9.07055L6.89722 7.68048L6.89161 7.67488V7.99717C6.89161 8.21944 6.95829 8.43059 7.08054 8.61397C7.20278 8.79734 7.37504 8.93626 7.58064 9.02516C7.78068 9.10851 8.00295 9.13074 8.21966 9.08629C8.24065 9.08104 8.26164 9.07579 8.2873 9.07055Z" fill="white" style="fill:white;fill-opacity:1;"/>
<path d="M9.66997 7.07476C9.36435 7.07476 9.11429 6.82471 9.11429 6.51909V3.5518C9.11429 3.27397 9.01427 3.0128 8.82535 2.8072C8.64197 2.6016 8.38636 2.4738 8.11409 2.44602C7.84181 2.41823 7.56397 2.49047 7.3417 2.65717C7.11943 2.81832 6.9694 3.06281 6.91384 3.32953C6.85271 3.6296 6.55821 3.82408 6.25814 3.76296C5.95808 3.70183 5.7636 3.41288 5.82472 3.11282C5.93585 2.57382 6.24147 2.09594 6.68601 1.7681C7.13055 1.44025 7.68066 1.29022 8.23078 1.34579C8.78089 1.40135 9.28655 1.65696 9.65885 2.06816C10.02 2.4738 10.2256 3.00169 10.2256 3.55736V6.52464C10.2256 6.83026 9.97558 7.07476 9.66997 7.07476Z" fill="white" style="fill:white;fill-opacity:1;"/>
<path d="M12.4483 6.88582C12.4483 6.5802 12.1983 6.33015 11.8926 6.33015C11.587 6.33015 11.337 6.5802 11.337 6.88582V7.99717C11.337 8.19721 11.3203 8.39169 11.2814 8.58618C11.2258 8.88624 11.4314 9.17519 11.7315 9.23076C12.0316 9.28632 12.3205 9.08072 12.3761 8.78066C12.4261 8.5195 12.4483 8.25833 12.4483 7.99717V6.88582Z" fill="white" style="fill:white;fill-opacity:1;"/>
</svg>
