<svg  viewBox="0 0 24 24" fill="none" xmlns="http://www.w3.org/2000/svg">
<g id="Icon/Left">
<g id="Vector">
<path d="M6.79307 6.89715C7.11261 6.57752 7.11253 6.05938 6.7929 5.73984C6.47327 5.42031 5.95512 5.42039 5.63559 5.74002C3.94802 7.4281 3 9.71731 3 12.1043C3 14.4912 3.94802 16.7804 5.63559 18.4685C5.95512 18.7881 6.47327 18.7882 6.7929 18.4687C7.11253 18.1491 7.11261 17.631 6.79307 17.3114C5.41234 15.9302 4.63668 14.0572 4.63668 12.1043C4.63668 10.1513 5.41234 8.27831 6.79307 6.89715Z" fill="white" style="fill:white;fill-opacity:1;"/>
<path d="M18.3644 5.74002C18.0449 5.42039 17.5267 5.42031 17.2071 5.73984C16.8875 6.05938 16.8874 6.57752 17.2069 6.89715C18.5877 8.27831 19.3633 10.1513 19.3633 12.1043C19.3633 14.0572 18.5877 15.9302 17.2069 17.3114C16.8874 17.631 16.8875 18.1491 17.2071 18.4687C17.5267 18.7882 18.0449 18.7881 18.3644 18.4685C20.052 16.7804 21 14.4912 21 12.1043C21 9.71731 20.052 7.4281 18.3644 5.74002Z" fill="white" style="fill:white;fill-opacity:1;"/>
<path d="M9.10857 9.20528C9.42833 8.88588 9.42862 8.36773 9.10921 8.04797C8.78981 7.72821 8.27166 7.72793 7.9519 8.04733C7.4193 8.57934 6.99678 9.21112 6.7085 9.90653C6.42023 10.6019 6.27184 11.3474 6.27184 12.1002C6.27184 12.853 6.42023 13.5984 6.7085 14.2938C6.99678 14.9892 7.4193 15.621 7.9519 16.153C8.27166 16.4724 8.78981 16.4721 9.10921 16.1524C9.42862 15.8326 9.42833 15.3144 9.10857 14.995C8.72814 14.615 8.42634 14.1638 8.22042 13.667C8.01451 13.1703 7.90853 12.6379 7.90853 12.1002C7.90853 11.5624 8.01451 11.03 8.22042 10.5333C8.42634 10.0366 8.72814 9.58529 9.10857 9.20528Z" fill="white" style="fill:white;fill-opacity:1;"/>
<path d="M16.0481 8.05551C15.7283 7.73611 15.2102 7.7364 14.8908 8.05616C14.5714 8.37592 14.5717 8.89406 14.8914 9.21347C15.2719 9.59347 15.5737 10.0447 15.7796 10.5415C15.9855 11.0382 16.0915 11.5706 16.0915 12.1083C16.0915 12.6461 15.9855 13.1785 15.7796 13.6752C15.5737 14.1719 15.2719 14.6232 14.8914 15.0032C14.5717 15.3226 14.5714 15.8408 14.8908 16.1605C15.2102 16.4803 15.7283 16.4806 16.0481 16.1612C16.5807 15.6292 17.0032 14.9974 17.2915 14.302C17.5798 13.6066 17.7282 12.8611 17.7282 12.1083C17.7282 11.3555 17.5798 10.6101 17.2915 9.91472C17.0032 9.2193 16.5807 8.58753 16.0481 8.05551Z" fill="white" style="fill:white;fill-opacity:1;"/>
<path fill-rule="evenodd" clip-rule="evenodd" d="M12 9.64926C10.6441 9.64926 9.54496 10.7484 9.54496 12.1043C9.54496 13.4602 10.6441 14.5593 12 14.5593C13.3559 14.5593 14.455 13.4602 14.455 12.1043C14.455 10.7484 13.3559 9.64926 12 9.64926ZM11.1816 12.1043C11.1816 11.6523 11.548 11.2859 12 11.2859C12.4519 11.2859 12.8183 11.6523 12.8183 12.1043C12.8183 12.5562 12.4519 12.9226 12 12.9226C11.548 12.9226 11.1816 12.5562 11.1816 12.1043Z" fill="white" style="fill:white;fill-opacity:1;"/>
</g>
</g>
</svg>
